# xmcd
#
# Track frame offsets:
#	150
#	16275
#	38075
#	52412
#	71462
#	87850
#	106525
#	128200
#	148900
#	175900
#
# Disc length: 2654 seconds
#
# Revision: 3731253850
# Processed by: cddbd v1.5.2PL0 Copyright (c) Steve Scherf et al.
# Submitted via: EZCDAudioConverter 8.0.2.1
#
DISCID=860a5c0a
DTITLE=Don Hồ, Kenny, Ý Nhi - Love Song 11
DYEAR=1993
DGENRE=
TTITLE0=Kenny - Những lời ân ái (Words Don't Come Easy)
TTITLE1=Don Hồ - Mơ về em
TTITLE2=Kenny, Ý Nhi - Thương nhớ cho nhau (Sukinohito)
TTITLE3=Kenny - Tình yêu (Amour)
TTITLE4=Ý Nhi - Cánh chim và trẻ thơ
TTITLE5=Don Hồ - Tất cả cho tình yêu (Everything I Do, I Do It For You)
TTITLE6=Kenny - Cho anh hiểu tình em (Let Me Get To Know You)
TTITLE7=Ý Nhi - Căn nhà xinh
TTITLE8=Kenny - Hoang vắng
TTITLE9=Kenny, Ý Nhi - Niềm thương nhớ trong tim (What's In My Heart)
EXTD=
EXTT0=
EXTT1=
EXTT2=
EXTT3=
EXTT4=
EXTT5=
EXTT6=
EXTT7=
EXTT8=
EXTT9=
PLAYORDER=
